<mxfile host="app.diagrams.net" modified="2020-09-14T11:21:35.427Z" agent="5.0 (Macintosh; Intel Mac OS X 10_14_0) AppleWebKit/537.36 (KHTML, like Gecko) Chrome/83.0.4103.116 Safari/537.36" etag="51zEi4k77iN1K9StSuC7" version="13.6.5" type="github">
  <diagram id="3sJmwWHuC3y5HuRblNoI" name="Page-1">
    <mxGraphModel dx="2893" dy="2210" grid="1" gridSize="10" guides="1" tooltips="1" connect="1" arrows="1" fold="1" page="1" pageScale="1" pageWidth="827" pageHeight="1169" math="0" shadow="0">
      <root>
        <mxCell id="0" />
        <mxCell id="1" parent="0" />
        <mxCell id="ATobDdn7_iabuAxhh3ML-18" style="edgeStyle=orthogonalEdgeStyle;rounded=0;orthogonalLoop=1;jettySize=auto;html=1;exitX=1;exitY=0.5;exitDx=0;exitDy=0;entryX=0;entryY=0.5;entryDx=0;entryDy=0;" edge="1" parent="1" source="ATobDdn7_iabuAxhh3ML-1" target="ATobDdn7_iabuAxhh3ML-15">
          <mxGeometry relative="1" as="geometry" />
        </mxCell>
        <mxCell id="ATobDdn7_iabuAxhh3ML-1" value="SDK合入系统&lt;br&gt;（国内）" style="rounded=0;whiteSpace=wrap;html=1;" vertex="1" parent="1">
          <mxGeometry x="-510" y="200" width="120" height="60" as="geometry" />
        </mxCell>
        <mxCell id="ATobDdn7_iabuAxhh3ML-2" value="组件负责人" style="shape=umlActor;verticalLabelPosition=bottom;verticalAlign=top;html=1;outlineConnect=0;" vertex="1" parent="1">
          <mxGeometry x="-680" y="210" width="30" height="60" as="geometry" />
        </mxCell>
        <mxCell id="ATobDdn7_iabuAxhh3ML-3" value="" style="endArrow=classic;html=1;exitX=1;exitY=0.3333333333333333;exitDx=0;exitDy=0;exitPerimeter=0;entryX=0;entryY=0.5;entryDx=0;entryDy=0;" edge="1" parent="1" source="ATobDdn7_iabuAxhh3ML-2" target="ATobDdn7_iabuAxhh3ML-1">
          <mxGeometry width="50" height="50" relative="1" as="geometry">
            <mxPoint x="-290" y="400" as="sourcePoint" />
            <mxPoint x="-240" y="350" as="targetPoint" />
          </mxGeometry>
        </mxCell>
        <mxCell id="ATobDdn7_iabuAxhh3ML-5" value="发布新组件" style="text;html=1;strokeColor=none;fillColor=none;align=center;verticalAlign=middle;whiteSpace=wrap;rounded=0;" vertex="1" parent="1">
          <mxGeometry x="-620" y="210" width="68" height="20" as="geometry" />
        </mxCell>
        <mxCell id="ATobDdn7_iabuAxhh3ML-20" style="edgeStyle=orthogonalEdgeStyle;rounded=0;orthogonalLoop=1;jettySize=auto;html=1;entryX=1;entryY=0.5;entryDx=0;entryDy=0;exitX=0.625;exitY=0.2;exitDx=0;exitDy=0;exitPerimeter=0;" edge="1" parent="1" source="ATobDdn7_iabuAxhh3ML-8" target="ATobDdn7_iabuAxhh3ML-19">
          <mxGeometry relative="1" as="geometry">
            <Array as="points">
              <mxPoint x="116" y="-4" />
              <mxPoint x="116" y="-100" />
            </Array>
          </mxGeometry>
        </mxCell>
        <mxCell id="ATobDdn7_iabuAxhh3ML-8" value="AWS" style="ellipse;shape=cloud;whiteSpace=wrap;html=1;" vertex="1" parent="1">
          <mxGeometry x="50" y="-20" width="120" height="80" as="geometry" />
        </mxCell>
        <mxCell id="ATobDdn7_iabuAxhh3ML-10" value="" style="endArrow=classic;html=1;entryX=0.07;entryY=0.4;entryDx=0;entryDy=0;entryPerimeter=0;exitX=0.5;exitY=0;exitDx=0;exitDy=0;edgeStyle=orthogonalEdgeStyle;rounded=0;" edge="1" parent="1" source="ATobDdn7_iabuAxhh3ML-15" target="ATobDdn7_iabuAxhh3ML-8">
          <mxGeometry width="50" height="50" relative="1" as="geometry">
            <mxPoint x="-220" y="166" as="sourcePoint" />
            <mxPoint x="-10.800000000000182" y="20" as="targetPoint" />
            <Array as="points">
              <mxPoint x="-220" y="12" />
            </Array>
          </mxGeometry>
        </mxCell>
        <mxCell id="ATobDdn7_iabuAxhh3ML-11" value="上传AWS" style="edgeLabel;html=1;align=center;verticalAlign=middle;resizable=0;points=[];" vertex="1" connectable="0" parent="ATobDdn7_iabuAxhh3ML-10">
          <mxGeometry x="-0.1134" y="-66" relative="1" as="geometry">
            <mxPoint x="66" y="-70" as="offset" />
          </mxGeometry>
        </mxCell>
        <mxCell id="ATobDdn7_iabuAxhh3ML-24" style="edgeStyle=orthogonalEdgeStyle;rounded=0;orthogonalLoop=1;jettySize=auto;html=1;exitX=0.5;exitY=1;exitDx=0;exitDy=0;entryX=0.5;entryY=0;entryDx=0;entryDy=0;" edge="1" parent="1" source="ATobDdn7_iabuAxhh3ML-12" target="ATobDdn7_iabuAxhh3ML-23">
          <mxGeometry relative="1" as="geometry" />
        </mxCell>
        <mxCell id="ATobDdn7_iabuAxhh3ML-12" value="SDK下载国际站&lt;br&gt;（新加坡）" style="rounded=0;whiteSpace=wrap;html=1;" vertex="1" parent="1">
          <mxGeometry x="420" y="200" width="120" height="60" as="geometry" />
        </mxCell>
        <mxCell id="ATobDdn7_iabuAxhh3ML-13" value="" style="endArrow=classic;html=1;entryX=0.5;entryY=0;entryDx=0;entryDy=0;edgeStyle=orthogonalEdgeStyle;exitX=0.875;exitY=0.5;exitDx=0;exitDy=0;exitPerimeter=0;rounded=0;" edge="1" parent="1" source="ATobDdn7_iabuAxhh3ML-8" target="ATobDdn7_iabuAxhh3ML-12">
          <mxGeometry width="50" height="50" relative="1" as="geometry">
            <mxPoint x="330" y="20" as="sourcePoint" />
            <mxPoint x="470" y="550" as="targetPoint" />
            <Array as="points">
              <mxPoint x="480" y="20" />
            </Array>
          </mxGeometry>
        </mxCell>
        <mxCell id="ATobDdn7_iabuAxhh3ML-14" value="下载组件到本地" style="edgeLabel;html=1;align=center;verticalAlign=middle;resizable=0;points=[];" vertex="1" connectable="0" parent="ATobDdn7_iabuAxhh3ML-13">
          <mxGeometry x="-0.0689" y="-4" relative="1" as="geometry">
            <mxPoint as="offset" />
          </mxGeometry>
        </mxCell>
        <mxCell id="ATobDdn7_iabuAxhh3ML-15" value="生成新版本hash" style="ellipse;whiteSpace=wrap;html=1;" vertex="1" parent="1">
          <mxGeometry x="-280" y="190" width="120" height="80" as="geometry" />
        </mxCell>
        <mxCell id="ATobDdn7_iabuAxhh3ML-16" value="数据库" style="shape=cylinder2;whiteSpace=wrap;html=1;boundedLbl=1;backgroundOutline=1;size=15;" vertex="1" parent="1">
          <mxGeometry x="-250" y="410" width="60" height="80" as="geometry" />
        </mxCell>
        <mxCell id="ATobDdn7_iabuAxhh3ML-17" value="" style="endArrow=classic;html=1;exitX=0.5;exitY=1;exitDx=0;exitDy=0;" edge="1" parent="1" source="ATobDdn7_iabuAxhh3ML-15" target="ATobDdn7_iabuAxhh3ML-16">
          <mxGeometry width="50" height="50" relative="1" as="geometry">
            <mxPoint x="-160" y="560" as="sourcePoint" />
            <mxPoint x="-110" y="510" as="targetPoint" />
          </mxGeometry>
        </mxCell>
        <mxCell id="ATobDdn7_iabuAxhh3ML-21" style="edgeStyle=orthogonalEdgeStyle;rounded=0;orthogonalLoop=1;jettySize=auto;html=1;exitX=0.5;exitY=1;exitDx=0;exitDy=0;" edge="1" parent="1" source="ATobDdn7_iabuAxhh3ML-1" target="ATobDdn7_iabuAxhh3ML-12">
          <mxGeometry relative="1" as="geometry">
            <Array as="points">
              <mxPoint x="-450" y="610" />
              <mxPoint x="610" y="610" />
              <mxPoint x="610" y="230" />
            </Array>
          </mxGeometry>
        </mxCell>
        <mxCell id="ATobDdn7_iabuAxhh3ML-22" value="主动将新版本hash和下载地址push给国际站" style="edgeLabel;html=1;align=center;verticalAlign=middle;resizable=0;points=[];" vertex="1" connectable="0" parent="ATobDdn7_iabuAxhh3ML-21">
          <mxGeometry x="-0.1818" relative="1" as="geometry">
            <mxPoint as="offset" />
          </mxGeometry>
        </mxCell>
        <mxCell id="ATobDdn7_iabuAxhh3ML-32" style="edgeStyle=orthogonalEdgeStyle;rounded=0;sketch=0;orthogonalLoop=1;jettySize=auto;html=1;exitX=0;exitY=0.5;exitDx=0;exitDy=0;fontSize=14;fontColor=#FFFFFF;entryX=0.5;entryY=0;entryDx=0;entryDy=0;" edge="1" parent="1" source="ATobDdn7_iabuAxhh3ML-19" target="ATobDdn7_iabuAxhh3ML-1">
          <mxGeometry relative="1" as="geometry">
            <Array as="points">
              <mxPoint x="-450" y="-100" />
            </Array>
          </mxGeometry>
        </mxCell>
        <mxCell id="ATobDdn7_iabuAxhh3ML-33" value="&lt;font color=&quot;#000000&quot; style=&quot;font-size: 11px;&quot;&gt;回调合入发布系统&lt;/font&gt;" style="edgeLabel;html=1;align=center;verticalAlign=middle;resizable=0;points=[];fontSize=11;fontColor=#FFFFFF;" vertex="1" connectable="0" parent="ATobDdn7_iabuAxhh3ML-32">
          <mxGeometry x="0.6038" y="-3" relative="1" as="geometry">
            <mxPoint x="3" y="-55" as="offset" />
          </mxGeometry>
        </mxCell>
        <mxCell id="ATobDdn7_iabuAxhh3ML-19" value="上传完成" style="rhombus;whiteSpace=wrap;html=1;" vertex="1" parent="1">
          <mxGeometry x="-220" y="-140" width="80" height="80" as="geometry" />
        </mxCell>
        <mxCell id="ATobDdn7_iabuAxhh3ML-23" value="下载完成" style="rhombus;whiteSpace=wrap;html=1;" vertex="1" parent="1">
          <mxGeometry x="440" y="410" width="80" height="80" as="geometry" />
        </mxCell>
        <mxCell id="ATobDdn7_iabuAxhh3ML-25" value="" style="endArrow=classic;html=1;exitX=0;exitY=0.5;exitDx=0;exitDy=0;entryX=1;entryY=0.513;entryDx=0;entryDy=0;entryPerimeter=0;" edge="1" parent="1" source="ATobDdn7_iabuAxhh3ML-27" target="ATobDdn7_iabuAxhh3ML-16">
          <mxGeometry width="50" height="50" relative="1" as="geometry">
            <mxPoint x="-160" y="360" as="sourcePoint" />
            <mxPoint x="-110" y="310" as="targetPoint" />
          </mxGeometry>
        </mxCell>
        <mxCell id="ATobDdn7_iabuAxhh3ML-26" value="查询是否还有下一条组件上传记录&lt;br&gt;如果还有，重复步骤4" style="edgeLabel;html=1;align=center;verticalAlign=middle;resizable=0;points=[];" vertex="1" connectable="0" parent="ATobDdn7_iabuAxhh3ML-25">
          <mxGeometry x="0.0254" y="-3" relative="1" as="geometry">
            <mxPoint as="offset" />
          </mxGeometry>
        </mxCell>
        <mxCell id="ATobDdn7_iabuAxhh3ML-27" value="文件hash校验对比&lt;br&gt;（可省略）" style="rounded=0;whiteSpace=wrap;html=1;" vertex="1" parent="1">
          <mxGeometry x="146" y="420" width="120" height="60" as="geometry" />
        </mxCell>
        <mxCell id="ATobDdn7_iabuAxhh3ML-28" value="" style="endArrow=classic;html=1;exitX=0;exitY=0.5;exitDx=0;exitDy=0;entryX=1;entryY=0.5;entryDx=0;entryDy=0;" edge="1" parent="1" source="ATobDdn7_iabuAxhh3ML-23" target="ATobDdn7_iabuAxhh3ML-27">
          <mxGeometry width="50" height="50" relative="1" as="geometry">
            <mxPoint x="-160" y="360" as="sourcePoint" />
            <mxPoint x="-110" y="310" as="targetPoint" />
          </mxGeometry>
        </mxCell>
        <mxCell id="ATobDdn7_iabuAxhh3ML-30" value="1" style="ellipse;whiteSpace=wrap;html=1;aspect=fixed;rounded=0;labelBackgroundColor=none;sketch=0;fontSize=14;fillColor=#FFA866;strokeColor=#4D4D4D;" vertex="1" parent="1">
          <mxGeometry x="-140" y="-20" width="20" height="20" as="geometry" />
        </mxCell>
        <mxCell id="ATobDdn7_iabuAxhh3ML-31" value="2" style="ellipse;whiteSpace=wrap;html=1;aspect=fixed;rounded=0;labelBackgroundColor=none;sketch=0;fontSize=14;fillColor=#FFA866;strokeColor=#4D4D4D;" vertex="1" parent="1">
          <mxGeometry x="-480" y="10" width="20" height="20" as="geometry" />
        </mxCell>
        <mxCell id="ATobDdn7_iabuAxhh3ML-34" value="3" style="ellipse;whiteSpace=wrap;html=1;aspect=fixed;rounded=0;labelBackgroundColor=none;sketch=0;fontSize=14;fillColor=#FFA866;strokeColor=#4D4D4D;" vertex="1" parent="1">
          <mxGeometry x="-50" y="575" width="20" height="20" as="geometry" />
        </mxCell>
        <mxCell id="ATobDdn7_iabuAxhh3ML-35" value="4" style="ellipse;whiteSpace=wrap;html=1;aspect=fixed;rounded=0;labelBackgroundColor=none;sketch=0;fontSize=14;fillColor=#FFA866;strokeColor=#4D4D4D;" vertex="1" parent="1">
          <mxGeometry x="380" y="-10" width="20" height="20" as="geometry" />
        </mxCell>
        <mxCell id="ATobDdn7_iabuAxhh3ML-36" value="5" style="ellipse;whiteSpace=wrap;html=1;aspect=fixed;rounded=0;labelBackgroundColor=none;sketch=0;fontSize=14;fillColor=#FFA866;strokeColor=#4D4D4D;" vertex="1" parent="1">
          <mxGeometry x="196" y="390" width="20" height="20" as="geometry" />
        </mxCell>
        <mxCell id="ATobDdn7_iabuAxhh3ML-37" value="6" style="ellipse;whiteSpace=wrap;html=1;aspect=fixed;rounded=0;labelBackgroundColor=none;sketch=0;fontSize=14;fillColor=#FFA866;strokeColor=#4D4D4D;" vertex="1" parent="1">
          <mxGeometry x="-40" y="410" width="20" height="20" as="geometry" />
        </mxCell>
      </root>
    </mxGraphModel>
  </diagram>
</mxfile>
